<svg width="25" height="25" viewBox="0 0 25 25" fill="none" xmlns="http://www.w3.org/2000/svg">
<path d="M12.25 2C10.0628 2.00258 7.96584 2.8726 6.41923 4.41922C4.87261 5.96584 4.00259 8.06276 4.00001 10.25C3.99739 12.0374 4.58124 13.7763 5.66201 15.2C5.66201 15.2 5.88701 15.4963 5.92376 15.539L12.25 23L18.5793 15.5353C18.6123 15.4955 18.838 15.2 18.838 15.2L18.8388 15.1978C19.919 13.7747 20.5026 12.0366 20.5 10.25C20.4974 8.06276 19.6274 5.96584 18.0808 4.41922C16.5342 2.8726 14.4373 2.00258 12.25 2ZM12.25 13.25C11.6567 13.25 11.0766 13.0741 10.5833 12.7444C10.09 12.4148 9.70543 11.9462 9.47837 11.3981C9.25131 10.8499 9.1919 10.2467 9.30765 9.66473C9.42341 9.08279 9.70913 8.54824 10.1287 8.12868C10.5482 7.70912 11.0828 7.4234 11.6647 7.30764C12.2467 7.19189 12.8499 7.2513 13.3981 7.47836C13.9462 7.70542 14.4148 8.08994 14.7444 8.58329C15.0741 9.07664 15.25 9.65666 15.25 10.25C15.249 11.0453 14.9326 11.8078 14.3702 12.3702C13.8078 12.9326 13.0454 13.249 12.25 13.25Z" fill="#09175F"/>
</svg>
